<svg width="109" height="30" viewBox="0 0 109 30" fill="none" xmlns="http://www.w3.org/2000/svg">
<path d="M0.403992 23V7.78854H5.23253V10.976C5.485 9.88195 6.00047 9.04038 6.77892 8.45128C7.57842 7.84114 8.46207 7.53607 9.42988 7.53607C9.93483 7.53607 10.3556 7.57814 10.6922 7.6623V12.1437C10.1242 12.0806 9.64028 12.049 9.24053 12.049C6.56853 12.049 5.23253 13.7427 5.23253 17.13V23H0.403992ZM24.6815 21.2011C23.1667 22.716 21.1259 23.4734 18.5591 23.4734C15.9923 23.4734 13.9409 22.716 12.4051 21.2011C10.8692 19.6863 10.1013 17.7507 10.1013 15.3943C10.1013 13.0379 10.8692 11.1128 12.4051 9.61896C13.9409 8.10413 15.9923 7.34671 18.5591 7.34671C21.1259 7.34671 23.1667 8.10413 24.6815 9.61896C26.2174 11.1128 26.9853 13.0379 26.9853 15.3943C26.9853 17.7507 26.2174 19.6863 24.6815 21.2011ZM18.5591 19.3707C19.6742 19.3707 20.5578 19.0025 21.21 18.2661C21.8623 17.5298 22.1884 16.5725 22.1884 15.3943C22.1884 14.2161 21.8623 13.2588 21.21 12.5224C20.5578 11.786 19.6742 11.4178 18.5591 11.4178C17.423 11.4178 16.5288 11.786 15.8766 12.5224C15.2454 13.2588 14.9298 14.2161 14.9298 15.3943C14.9298 16.5725 15.2454 17.5298 15.8766 18.2661C16.5288 19.0025 17.423 19.3707 18.5591 19.3707ZM35.3347 23.4734C32.852 23.4734 30.8743 22.737 29.4016 21.2643C27.9288 19.7705 27.1925 17.8138 27.1925 15.3943C27.1925 12.9747 27.9288 11.0286 29.4016 9.55584C30.8743 8.08309 32.852 7.34671 35.3347 7.34671C37.5859 7.34671 39.4163 7.90425 40.826 9.01934C42.2356 10.1344 43.0351 11.6493 43.2245 13.5638H38.3959C38.0382 12.1332 37.0284 11.4178 35.3662 11.4178C34.3143 11.4178 33.4937 11.765 32.9046 12.4593C32.3155 13.1536 32.021 14.1319 32.021 15.3943C32.021 16.6566 32.3155 17.635 32.9046 18.3293C33.4937 19.0236 34.3143 19.3707 35.3662 19.3707C37.0284 19.3707 38.0382 18.6975 38.3959 17.3509H43.2245C43.0351 19.2234 42.2356 20.7172 40.826 21.8323C39.4163 22.9264 37.5859 23.4734 35.3347 23.4734ZM59.6546 23H53.7531L48.9246 16.4042V23H44.096V0.908662H48.9246V14.1319L53.8793 7.78854H59.56L53.5006 14.984L59.6546 23ZM73.6807 14.6053C73.6807 15.2365 73.6386 15.9413 73.5544 16.7198H62.3194C62.3615 17.7086 62.6981 18.4765 63.3293 19.0236C63.9605 19.5706 64.8126 19.8441 65.8856 19.8441C67.3583 19.8441 68.3051 19.3707 68.7259 18.4239H73.4598C73.2283 19.9177 72.4078 21.138 70.9982 22.0848C69.6096 23.0105 67.9054 23.4734 65.8856 23.4734C63.2977 23.4734 61.2569 22.7581 59.7631 21.3274C58.2693 19.8967 57.5224 17.919 57.5224 15.3943C57.5224 12.9116 58.2693 10.955 59.7631 9.52429C61.2569 8.07257 63.2451 7.34671 65.7278 7.34671C68.0842 7.34671 69.9988 8.01997 71.4715 9.36649C72.9443 10.713 73.6807 12.4593 73.6807 14.6053ZM62.3194 13.7216H68.9153C68.8942 12.7118 68.6102 11.9333 68.0632 11.3863C67.5161 10.8392 66.7272 10.5657 65.6962 10.5657C64.6653 10.5657 63.8448 10.8603 63.2346 11.4494C62.6455 12.0175 62.3405 12.7749 62.3194 13.7216ZM82.4721 19.2445C83.1454 19.2445 83.7029 19.2129 84.1447 19.1498V23C83.219 23.1683 82.146 23.2525 80.9257 23.2525C80.3787 23.2525 79.8948 23.2209 79.474 23.1578C79.0532 23.0947 78.5798 22.9579 78.0538 22.7475C77.5278 22.5161 77.0965 22.211 76.7599 21.8323C76.4233 21.4536 76.1287 20.9066 75.8762 20.1912C75.6448 19.4759 75.5291 18.6343 75.5291 17.6665V11.6072H73.1306V7.78854H75.5291V3.27559H80.3576V7.78854H83.7976V11.6072H80.3576V16.6566C80.3576 17.6876 80.5365 18.3819 80.8941 18.7395C81.2518 19.0762 81.7778 19.2445 82.4721 19.2445ZM103.84 7.78854H108.637V29.3118H103.808V21.6745H103.84V20.854C103.419 21.6114 102.767 22.2321 101.883 22.716C101.021 23.1788 100.063 23.4103 99.0115 23.4103C96.8024 23.4103 95.0561 22.6634 93.7727 21.1696C92.4893 19.6758 91.8476 17.7507 91.8476 15.3943C91.8476 13.0799 92.5103 11.1654 93.8358 9.65052C95.1613 8.13569 96.9076 7.37827 99.0746 7.37827C100.148 7.37827 101.105 7.6097 101.946 8.07257C102.788 8.53543 103.419 9.16662 103.84 9.96611V7.78854ZM100.4 19.4023C101.557 19.4023 102.451 19.0236 103.083 18.2661C103.714 17.5087 104.029 16.5514 104.029 15.3943C104.029 14.2581 103.714 13.3114 103.083 12.554C102.451 11.7965 101.557 11.4178 100.4 11.4178C99.306 11.4178 98.4224 11.786 97.7491 12.5224C97.0969 13.2588 96.7708 14.2161 96.7708 15.3943C96.7708 16.5725 97.0969 17.5403 97.7491 18.2977C98.4224 19.0341 99.306 19.4023 100.4 19.4023Z" fill="#0D114F"/>
<path d="M90.1584 22.4004C89.5693 23.0105 88.833 23.3156 87.9493 23.3156C87.0657 23.3156 86.3188 23.0105 85.7086 22.4004C85.1195 21.7902 84.825 21.0644 84.825 20.2228C84.825 19.3602 85.1195 18.6343 85.7086 18.0452C86.3188 17.4351 87.0657 17.13 87.9493 17.13C88.833 17.13 89.5693 17.4351 90.1584 18.0452C90.7686 18.6343 91.0737 19.3602 91.0737 20.2228C91.0737 21.0644 90.7686 21.7902 90.1584 22.4004Z" fill="url(#paint0_linear_11003_623)"/>
<defs>
<linearGradient id="paint0_linear_11003_623" x1="133.169" y1="-66.0291" x2="121.57" y2="47.1337" gradientUnits="userSpaceOnUse">
<stop stop-color="#5498FF"/>
<stop offset="0.515625" stop-color="#428EFF"/>
<stop offset="1" stop-color="#297FFF"/>
</linearGradient>
</defs>
</svg>
